<mxfile host="app.diagrams.net" modified="2022-03-09T09:09:25.387Z" agent="5.0 (Windows)" etag="_EpS6vod7bMvKZ5H2Wva" version="17.0.0" type="github">
  <diagram id="8BaqlH5EB9zquj2nvdbJ" name="Page-1">
    <mxGraphModel dx="1422" dy="744" grid="1" gridSize="10" guides="1" tooltips="1" connect="1" arrows="1" fold="1" page="1" pageScale="1" pageWidth="827" pageHeight="1169" math="0" shadow="0">
      <root>
        <mxCell id="0" />
        <mxCell id="1" parent="0" />
        <mxCell id="RSe_IUzCgjbKjomdiFHQ-14" value="消息通知表" style="rounded=0;whiteSpace=wrap;html=1;align=right;" vertex="1" parent="1">
          <mxGeometry x="570" y="374" width="120" height="60" as="geometry" />
        </mxCell>
        <mxCell id="RSe_IUzCgjbKjomdiFHQ-3" value="" style="edgeStyle=orthogonalEdgeStyle;rounded=0;orthogonalLoop=1;jettySize=auto;html=1;" edge="1" parent="1" source="RSe_IUzCgjbKjomdiFHQ-1" target="RSe_IUzCgjbKjomdiFHQ-2">
          <mxGeometry relative="1" as="geometry" />
        </mxCell>
        <mxCell id="RSe_IUzCgjbKjomdiFHQ-1" value="开始" style="rounded=1;whiteSpace=wrap;html=1;" vertex="1" parent="1">
          <mxGeometry x="230" y="130" width="120" height="50" as="geometry" />
        </mxCell>
        <mxCell id="RSe_IUzCgjbKjomdiFHQ-6" value="" style="edgeStyle=orthogonalEdgeStyle;rounded=0;orthogonalLoop=1;jettySize=auto;html=1;" edge="1" parent="1" source="RSe_IUzCgjbKjomdiFHQ-2" target="RSe_IUzCgjbKjomdiFHQ-5">
          <mxGeometry relative="1" as="geometry" />
        </mxCell>
        <mxCell id="RSe_IUzCgjbKjomdiFHQ-8" value="" style="edgeStyle=orthogonalEdgeStyle;rounded=0;orthogonalLoop=1;jettySize=auto;html=1;" edge="1" parent="1" source="RSe_IUzCgjbKjomdiFHQ-2" target="RSe_IUzCgjbKjomdiFHQ-7">
          <mxGeometry relative="1" as="geometry" />
        </mxCell>
        <mxCell id="RSe_IUzCgjbKjomdiFHQ-2" value="调用sdk创建通知" style="rounded=0;whiteSpace=wrap;html=1;" vertex="1" parent="1">
          <mxGeometry x="230" y="240" width="120" height="60" as="geometry" />
        </mxCell>
        <mxCell id="RSe_IUzCgjbKjomdiFHQ-4" value="" style="sketch=0;outlineConnect=0;fontColor=#232F3E;gradientColor=none;fillColor=#2E27AD;strokeColor=none;dashed=0;verticalLabelPosition=bottom;verticalAlign=top;align=center;html=1;fontSize=12;fontStyle=0;aspect=fixed;pointerEvents=1;shape=mxgraph.aws4.rds_postgresql_instance_alt;rounded=1;" vertex="1" parent="1">
          <mxGeometry x="570" y="380" width="48" height="48" as="geometry" />
        </mxCell>
        <mxCell id="RSe_IUzCgjbKjomdiFHQ-5" value="登录或轮询请求时弹窗通知" style="whiteSpace=wrap;html=1;rounded=0;" vertex="1" parent="1">
          <mxGeometry x="230" y="340" width="120" height="60" as="geometry" />
        </mxCell>
        <mxCell id="RSe_IUzCgjbKjomdiFHQ-10" value="标为已读" style="edgeStyle=orthogonalEdgeStyle;rounded=0;orthogonalLoop=1;jettySize=auto;html=1;" edge="1" parent="1" source="RSe_IUzCgjbKjomdiFHQ-7">
          <mxGeometry relative="1" as="geometry">
            <mxPoint x="130" y="460" as="targetPoint" />
          </mxGeometry>
        </mxCell>
        <mxCell id="RSe_IUzCgjbKjomdiFHQ-7" value="界面列表展示通知" style="whiteSpace=wrap;html=1;rounded=0;" vertex="1" parent="1">
          <mxGeometry x="70" y="340" width="120" height="60" as="geometry" />
        </mxCell>
        <mxCell id="RSe_IUzCgjbKjomdiFHQ-13" value="标为未读" style="edgeStyle=orthogonalEdgeStyle;rounded=0;orthogonalLoop=1;jettySize=auto;html=1;exitX=0.5;exitY=1;exitDx=0;exitDy=0;" edge="1" parent="1" source="RSe_IUzCgjbKjomdiFHQ-11" target="RSe_IUzCgjbKjomdiFHQ-12">
          <mxGeometry relative="1" as="geometry" />
        </mxCell>
        <mxCell id="RSe_IUzCgjbKjomdiFHQ-11" value="已读通知" style="whiteSpace=wrap;html=1;rounded=0;" vertex="1" parent="1">
          <mxGeometry x="70" y="460" width="120" height="60" as="geometry" />
        </mxCell>
        <mxCell id="RSe_IUzCgjbKjomdiFHQ-12" value="未读通知" style="whiteSpace=wrap;html=1;rounded=0;" vertex="1" parent="1">
          <mxGeometry x="70" y="570" width="120" height="60" as="geometry" />
        </mxCell>
        <mxCell id="RSe_IUzCgjbKjomdiFHQ-15" value="" style="endArrow=classic;html=1;rounded=0;" edge="1" parent="1">
          <mxGeometry width="50" height="50" relative="1" as="geometry">
            <mxPoint x="430" y="400" as="sourcePoint" />
            <mxPoint x="570" y="400" as="targetPoint" />
          </mxGeometry>
        </mxCell>
        <mxCell id="RSe_IUzCgjbKjomdiFHQ-16" value="&lt;div&gt;创建时新增&lt;/div&gt;&lt;div&gt;弹窗后修改弹窗属性&lt;/div&gt;&lt;div&gt;标记已读、未读&lt;/div&gt;&lt;div&gt;修改读取属性&lt;br&gt;&lt;/div&gt;" style="edgeLabel;html=1;align=center;verticalAlign=middle;resizable=0;points=[];" vertex="1" connectable="0" parent="RSe_IUzCgjbKjomdiFHQ-15">
          <mxGeometry x="0.1714" y="-3" relative="1" as="geometry">
            <mxPoint as="offset" />
          </mxGeometry>
        </mxCell>
        <mxCell id="RSe_IUzCgjbKjomdiFHQ-17" value="" style="shape=curlyBracket;whiteSpace=wrap;html=1;rounded=1;flipH=1;" vertex="1" parent="1">
          <mxGeometry x="414" y="340" width="20" height="120" as="geometry" />
        </mxCell>
      </root>
    </mxGraphModel>
  </diagram>
</mxfile>
